<?xml version="1.0" encoding="UTF-8" standalone="no"?>
<!DOCTYPE svg PUBLIC "-//W3C//DTD SVG 1.1//EN"
 "http://www.w3.org/Graphics/SVG/1.1/DTD/svg11.dtd">
<!-- Generated by graphviz version 2.26.3 (20100126.1600)
 -->
<!-- Title: state_diagram_session Pages: 1 -->
<svg width="864pt" height="266pt"
 viewBox="0.00 0.00 864.00 265.73" xmlns="http://www.w3.org/2000/svg" xmlns:xlink="http://www.w3.org/1999/xlink">
<g id="graph1" class="graph" transform="scale(0.367035 0.367035) rotate(0) translate(4 720)">
<title>state_diagram_session</title>
<polygon fill="white" stroke="white" points="-4,5 -4,-720 2351,-720 2351,5 -4,5"/>
<text text-anchor="middle" x="1173" y="-9.4" font-family="Times Roman,serif" font-size="14.00">State diagram for session</text>
<!-- stop -->
<g id="node1" class="node"><title>stop</title>
<ellipse fill="none" stroke="black" cx="2309" cy="-335" rx="32.0813" ry="32.5269"/>
<ellipse fill="none" stroke="black" cx="2309" cy="-335" rx="36.0265" ry="36.5269"/>
<text text-anchor="middle" x="2309" y="-331.4" font-family="Times Roman,serif" font-size="14.00">stop</text>
</g>
<!-- start1 -->
<g id="node2" class="node"><title>start1</title>
<ellipse fill="none" stroke="black" cx="42" cy="-395" rx="41.2167" ry="41.7193"/>
<text text-anchor="middle" x="42" y="-391.4" font-family="Times Roman,serif" font-size="14.00">start1</text>
</g>
<!-- start2 -->
<g id="node4" class="node"><title>start2</title>
<ellipse fill="none" stroke="black" cx="286" cy="-395" rx="41.2167" ry="41.7193"/>
<text text-anchor="middle" x="286" y="-391.4" font-family="Times Roman,serif" font-size="14.00">start2</text>
</g>
<!-- start1&#45;&gt;start2 -->
<g id="edge2" class="edge"><title>start1&#45;&gt;start2</title>
<path fill="none" stroke="black" d="M83.6679,-395C125.213,-395 189.13,-395 233.981,-395"/>
<polygon fill="black" stroke="black" points="234.096,-398.5 244.096,-395 234.096,-391.5 234.096,-398.5"/>
<text text-anchor="middle" x="164" y="-400.4" font-family="Times Roman,serif" font-size="14.00">Read wire version</text>
</g>
<!-- start3 -->
<g id="node6" class="node"><title>start3</title>
<ellipse fill="none" stroke="black" cx="537" cy="-395" rx="41.2167" ry="41.7193"/>
<text text-anchor="middle" x="537" y="-391.4" font-family="Times Roman,serif" font-size="14.00">start3</text>
</g>
<!-- start2&#45;&gt;start3 -->
<g id="edge4" class="edge"><title>start2&#45;&gt;start3</title>
<path fill="none" stroke="black" d="M327.729,-395C370.886,-395 438.364,-395 484.973,-395"/>
<polygon fill="black" stroke="black" points="485.171,-398.5 495.171,-395 485.171,-391.5 485.171,-398.5"/>
<text text-anchor="middle" x="401" y="-400.4" font-family="Times Roman,serif" font-size="14.00">Read CONNECT</text>
</g>
<!-- loop -->
<g id="node8" class="node"><title>loop</title>
<ellipse fill="none" stroke="black" cx="790" cy="-395" rx="31.8198" ry="31.8198"/>
<text text-anchor="middle" x="790" y="-391.4" font-family="Times Roman,serif" font-size="14.00">loop</text>
</g>
<!-- start3&#45;&gt;loop -->
<g id="edge6" class="edge"><title>start3&#45;&gt;loop</title>
<path fill="none" stroke="black" d="M578.778,-395C625.49,-395 700.728,-395 747.665,-395"/>
<polygon fill="black" stroke="black" points="747.805,-398.5 757.805,-395 747.805,-391.5 747.805,-398.5"/>
<text text-anchor="middle" x="675" y="-400.4" font-family="Times Roman,serif" font-size="14.00">Write CONNACK</text>
</g>
<!-- ping -->
<g id="node10" class="node"><title>ping</title>
<ellipse fill="none" stroke="black" cx="1135" cy="-593" rx="32.0265" ry="32.5269"/>
<text text-anchor="middle" x="1135" y="-589.4" font-family="Times Roman,serif" font-size="14.00">ping</text>
</g>
<!-- loop&#45;&gt;ping -->
<g id="edge8" class="edge"><title>loop&#45;&gt;ping</title>
<path fill="none" stroke="black" d="M800.39,-425.317C809.609,-448.006 825.187,-478.237 848,-497 920.691,-556.785 1032.18,-579.907 1092.58,-588.403"/>
<polygon fill="black" stroke="black" points="1092.15,-591.877 1102.53,-589.734 1093.08,-584.939 1092.15,-591.877"/>
<text text-anchor="middle" x="946" y="-583.4" font-family="Times Roman,serif" font-size="14.00">Elapsed ping interval</text>
</g>
<!-- broadcast -->
<g id="node12" class="node"><title>broadcast</title>
<ellipse fill="none" stroke="black" cx="1135" cy="-281" rx="58.1882" ry="58.6899"/>
<text text-anchor="middle" x="1135" y="-277.4" font-family="Times Roman,serif" font-size="14.00">broadcast</text>
</g>
<!-- loop&#45;&gt;broadcast -->
<g id="edge10" class="edge"><title>loop&#45;&gt;broadcast</title>
<path fill="none" stroke="black" d="M811.332,-370.953C821.492,-360.892 834.388,-349.946 848,-343 917.32,-307.628 1006.03,-292.395 1066.35,-285.86"/>
<polygon fill="black" stroke="black" points="1066.94,-289.319 1076.53,-284.811 1066.22,-282.355 1066.94,-289.319"/>
<text text-anchor="middle" x="946" y="-348.4" font-family="Times Roman,serif" font-size="14.00">Receive broadcast request</text>
</g>
<!-- conn_broken -->
<g id="node26" class="node"><title>conn_broken</title>
<ellipse fill="none" stroke="black" cx="1361" cy="-99" rx="73.0388" ry="73.5391"/>
<text text-anchor="middle" x="1361" y="-95.4" font-family="Times Roman,serif" font-size="14.00">conn_broken</text>
</g>
<!-- loop&#45;&gt;conn_broken -->
<g id="edge28" class="edge"><title>loop&#45;&gt;conn_broken</title>
<path fill="none" stroke="black" d="M793.216,-363.054C799.833,-304.219 817.014,-182.243 848,-155 967.196,-50.2026 1167.08,-63.6291 1278.91,-81.8408"/>
<polygon fill="black" stroke="black" points="1278.34,-85.2954 1288.79,-83.4998 1279.5,-78.392 1278.34,-85.2954"/>
<text text-anchor="middle" x="946" y="-160.4" font-family="Times Roman,serif" font-size="14.00">Receive connbroken request</text>
</g>
<!-- conn_warn -->
<g id="node28" class="node"><title>conn_warn</title>
<ellipse fill="none" stroke="black" cx="1135" cy="-477" rx="65.7609" ry="65.7609"/>
<text text-anchor="middle" x="1135" y="-473.4" font-family="Times Roman,serif" font-size="14.00">conn_warn</text>
</g>
<!-- loop&#45;&gt;conn_warn -->
<g id="edge30" class="edge"><title>loop&#45;&gt;conn_warn</title>
<path fill="none" stroke="black" d="M814.092,-416.512C823.957,-424.185 835.89,-432.126 848,-437 915.942,-464.343 999.421,-473.523 1058.8,-476.355"/>
<polygon fill="black" stroke="black" points="1058.71,-479.855 1068.85,-476.786 1059.01,-472.861 1058.71,-479.855"/>
<text text-anchor="middle" x="946" y="-480.4" font-family="Times Roman,serif" font-size="14.00">Receive connwarn request</text>
</g>
<!-- pong_wait -->
<g id="node14" class="node"><title>pong_wait</title>
<ellipse fill="none" stroke="black" cx="537" cy="-653" rx="62.9325" ry="62.9325"/>
<text text-anchor="middle" x="537" y="-649.4" font-family="Times Roman,serif" font-size="14.00">pong_wait</text>
</g>
<!-- ping&#45;&gt;pong_wait -->
<g id="edge12" class="edge"><title>ping&#45;&gt;pong_wait</title>
<path fill="none" stroke="black" d="M1103.4,-600.831C1035.81,-617.134 871.913,-654.261 732,-667 681.542,-671.594 668.481,-671.33 618,-667 615.134,-666.754 612.217,-666.46 609.275,-666.127"/>
<polygon fill="black" stroke="black" points="609.573,-662.637 599.214,-664.858 608.697,-669.582 609.573,-662.637"/>
<text text-anchor="middle" x="790" y="-670.4" font-family="Times Roman,serif" font-size="14.00">Write PING</text>
</g>
<!-- ack_wait -->
<g id="node16" class="node"><title>ack_wait</title>
<ellipse fill="none" stroke="black" cx="1598" cy="-373" rx="55.1543" ry="55.1543"/>
<text text-anchor="middle" x="1598" y="-369.4" font-family="Times Roman,serif" font-size="14.00">ack_wait</text>
</g>
<!-- broadcast&#45;&gt;ack_wait -->
<g id="edge14" class="edge"><title>broadcast&#45;&gt;ack_wait</title>
<path fill="none" stroke="black" d="M1193.25,-288.88C1264.95,-299.067 1390.23,-318.45 1496,-343 1508.9,-345.993 1522.57,-349.664 1535.58,-353.397"/>
<polygon fill="black" stroke="black" points="1534.79,-356.813 1545.37,-356.254 1536.75,-350.093 1534.79,-356.813"/>
<text text-anchor="middle" x="1361" y="-348.4" font-family="Times Roman,serif" font-size="14.00">Write BROADCAST [fits one wire msg]</text>
</g>
<!-- split_broadcast -->
<g id="node18" class="node"><title>split_broadcast</title>
<ellipse fill="none" stroke="black" cx="1598" cy="-216" rx="84.1457" ry="84.1457"/>
<text text-anchor="middle" x="1598" y="-212.4" font-family="Times Roman,serif" font-size="14.00">split_broadcast</text>
</g>
<!-- broadcast&#45;&gt;split_broadcast -->
<g id="edge16" class="edge"><title>broadcast&#45;&gt;split_broadcast</title>
<path fill="none" stroke="black" d="M1193.17,-272.834C1271.44,-261.846 1411.56,-242.174 1504.66,-229.104"/>
<polygon fill="black" stroke="black" points="1505.23,-232.558 1514.65,-227.702 1504.26,-225.626 1505.23,-232.558"/>
<text text-anchor="middle" x="1361" y="-272.4" font-family="Times Roman,serif" font-size="14.00">BROADCAST does not fit one wire msg</text>
</g>
<!-- pong_wait&#45;&gt;stop -->
<g id="edge40" class="edge"><title>pong_wait&#45;&gt;stop</title>
<path fill="none" stroke="black" d="M600.164,-653C651.344,-653 725.322,-653 790,-653 790,-653 790,-653 1972,-653 2131.11,-653 2245.53,-463.168 2289.33,-376.844"/>
<polygon fill="black" stroke="black" points="2292.5,-378.343 2293.84,-367.834 2286.24,-375.212 2292.5,-378.343"/>
<text text-anchor="middle" x="1361" y="-658.4" font-family="Times Roman,serif" font-size="14.00">Elapsed exhange timeout</text>
</g>
<!-- pong_wait&#45;&gt;loop -->
<g id="edge18" class="edge"><title>pong_wait&#45;&gt;loop</title>
<path fill="none" stroke="black" d="M581.359,-607.765C632.774,-555.333 716.085,-470.376 760.273,-425.314"/>
<polygon fill="black" stroke="black" points="762.774,-427.763 767.277,-418.172 757.776,-422.862 762.774,-427.763"/>
<text text-anchor="middle" x="675" y="-574.4" font-family="Times Roman,serif" font-size="14.00">Read PONG</text>
</g>
<!-- ack_wait&#45;&gt;stop -->
<g id="edge36" class="edge"><title>ack_wait&#45;&gt;stop</title>
<path fill="none" stroke="black" d="M1653.02,-372.757C1765.96,-371.776 2032.03,-366.986 2254,-344 2256.89,-343.701 2259.85,-343.348 2262.84,-342.959"/>
<polygon fill="black" stroke="black" points="2263.58,-346.389 2272.99,-341.517 2262.59,-339.459 2263.58,-346.389"/>
<text text-anchor="middle" x="1972" y="-373.4" font-family="Times Roman,serif" font-size="14.00">Elapsed exhange timeout</text>
</g>
<!-- ack_wait&#45;&gt;loop -->
<g id="edge20" class="edge"><title>ack_wait&#45;&gt;loop</title>
<path fill="none" stroke="black" d="M1542.83,-374.081C1445.66,-375.995 1237.64,-380.146 1062,-384 966.886,-386.087 942.947,-382.989 848,-389 842.829,-389.327 837.406,-389.764 832.04,-390.252"/>
<polygon fill="black" stroke="black" points="831.485,-386.79 821.871,-391.242 832.163,-393.757 831.485,-386.79"/>
<text text-anchor="middle" x="1135" y="-389.4" font-family="Times Roman,serif" font-size="14.00">Read ACK</text>
</g>
<!-- split_broadcast&#45;&gt;loop -->
<g id="edge26" class="edge"><title>split_broadcast&#45;&gt;loop</title>
<path fill="none" stroke="black" d="M1515.33,-201.109C1409.22,-184.681 1219.98,-164.458 1062,-196 960.985,-216.168 924.079,-215.554 848,-285 827.351,-303.849 812.751,-331.776 803.364,-354.774"/>
<polygon fill="black" stroke="black" points="800.027,-353.699 799.658,-364.287 806.549,-356.24 800.027,-353.699"/>
<text text-anchor="middle" x="1135" y="-201.4" font-family="Times Roman,serif" font-size="14.00">All split msgs written</text>
</g>
<!-- split_ack_wait -->
<g id="node22" class="node"><title>split_ack_wait</title>
<ellipse fill="none" stroke="black" cx="1972" cy="-257" rx="80.1095" ry="80.6102"/>
<text text-anchor="middle" x="1972" y="-253.4" font-family="Times Roman,serif" font-size="14.00">split_ack_wait</text>
</g>
<!-- split_broadcast&#45;&gt;split_ack_wait -->
<g id="edge22" class="edge"><title>split_broadcast&#45;&gt;split_ack_wait</title>
<path fill="none" stroke="black" d="M1680.55,-232.126C1687.12,-233.18 1693.66,-234.156 1700,-235 1760.22,-243.022 1828.36,-248.528 1881.38,-252.025"/>
<polygon fill="black" stroke="black" points="1881.23,-255.523 1891.43,-252.676 1881.68,-248.537 1881.23,-255.523"/>
<text text-anchor="middle" x="1783" y="-256.4" font-family="Times Roman,serif" font-size="14.00">Write split BROADCAST</text>
</g>
<!-- split_ack_wait&#45;&gt;stop -->
<g id="edge38" class="edge"><title>split_ack_wait&#45;&gt;stop</title>
<path fill="none" stroke="black" d="M2050.59,-275.189C2116.55,-290.456 2208.51,-311.74 2263.08,-324.372"/>
<polygon fill="black" stroke="black" points="2262.62,-327.857 2273.15,-326.702 2264.2,-321.037 2262.62,-327.857"/>
<text text-anchor="middle" x="2166" y="-327.4" font-family="Times Roman,serif" font-size="14.00">Elapsed exhange timeout</text>
</g>
<!-- split_ack_wait&#45;&gt;split_broadcast -->
<g id="edge24" class="edge"><title>split_ack_wait&#45;&gt;split_broadcast</title>
<path fill="none" stroke="black" d="M1899.33,-222.493C1888.37,-218.573 1877.04,-215.2 1866,-213 1808.89,-201.617 1743.56,-202.081 1691.71,-205.529"/>
<polygon fill="black" stroke="black" points="1691.25,-202.053 1681.52,-206.256 1691.74,-209.035 1691.25,-202.053"/>
<text text-anchor="middle" x="1783" y="-218.4" font-family="Times Roman,serif" font-size="14.00">Read ACK</text>
</g>
<!-- conn_broken&#45;&gt;stop -->
<g id="edge32" class="edge"><title>conn_broken&#45;&gt;stop</title>
<path fill="none" stroke="black" d="M1434.61,-95.8477C1564.45,-92.5456 1841.16,-95.6985 2060,-168 2154.32,-199.163 2175.34,-218.326 2254,-279 2262.17,-285.305 2270.33,-292.782 2277.75,-300.185"/>
<polygon fill="black" stroke="black" points="2275.42,-302.808 2284.91,-307.517 2280.43,-297.917 2275.42,-302.808"/>
<text text-anchor="middle" x="1783" y="-127.4" font-family="Times Roman,serif" font-size="14.00">Write CONNBROKEN</text>
</g>
<!-- conn_warn&#45;&gt;loop -->
<g id="edge34" class="edge"><title>conn_warn&#45;&gt;loop</title>
<path fill="none" stroke="black" d="M1083.63,-435.301C1071.29,-427.246 1057.71,-419.822 1044,-415 972.758,-389.933 883.562,-389.406 832.05,-391.836"/>
<polygon fill="black" stroke="black" points="831.758,-388.346 821.959,-392.373 832.131,-395.337 831.758,-388.346"/>
<text text-anchor="middle" x="946" y="-420.4" font-family="Times Roman,serif" font-size="14.00">Write CONNWARN</text>
</g>
</g>
</svg>
