<?xml version="1.0" encoding="UTF-8" standalone="no"?>
<!DOCTYPE svg PUBLIC "-//W3C//DTD SVG 1.1//EN"
 "http://www.w3.org/Graphics/SVG/1.1/DTD/svg11.dtd">
<!-- Generated by graphviz version 2.26.3 (20100126.1600)
 -->
<!-- Title: state_diagram_session Pages: 1 -->
<svg width="864pt" height="208pt"
 viewBox="0.00 0.00 864.00 207.94" xmlns="http://www.w3.org/2000/svg" xmlns:xlink="http://www.w3.org/1999/xlink">
<g id="graph1" class="graph" transform="scale(0.435923 0.435923) rotate(0) translate(4 473)">
<title>state_diagram_session</title>
<polygon fill="white" stroke="white" points="-4,5 -4,-473 1979,-473 1979,5 -4,5"/>
<text text-anchor="middle" x="987" y="-9.4" font-family="Times Roman,serif" font-size="14.00">State diagram for session</text>
<!-- start1 -->
<g id="node1" class="node"><title>start1</title>
<ellipse fill="none" stroke="black" cx="42" cy="-294" rx="41.2167" ry="41.7193"/>
<text text-anchor="middle" x="42" y="-290.4" font-family="Times Roman,serif" font-size="14.00">start1</text>
</g>
<!-- start2 -->
<g id="node3" class="node"><title>start2</title>
<ellipse fill="none" stroke="black" cx="286" cy="-294" rx="41.2167" ry="41.7193"/>
<text text-anchor="middle" x="286" y="-290.4" font-family="Times Roman,serif" font-size="14.00">start2</text>
</g>
<!-- start1&#45;&gt;start2 -->
<g id="edge2" class="edge"><title>start1&#45;&gt;start2</title>
<path fill="none" stroke="black" d="M83.6679,-294C125.213,-294 189.13,-294 233.981,-294"/>
<polygon fill="black" stroke="black" points="234.096,-297.5 244.096,-294 234.096,-290.5 234.096,-297.5"/>
<text text-anchor="middle" x="164" y="-299.4" font-family="Times Roman,serif" font-size="14.00">Read wire version</text>
</g>
<!-- start3 -->
<g id="node5" class="node"><title>start3</title>
<ellipse fill="none" stroke="black" cx="516" cy="-294" rx="41.2167" ry="41.7193"/>
<text text-anchor="middle" x="516" y="-290.4" font-family="Times Roman,serif" font-size="14.00">start3</text>
</g>
<!-- start2&#45;&gt;start3 -->
<g id="edge4" class="edge"><title>start2&#45;&gt;start3</title>
<path fill="none" stroke="black" d="M327.651,-294C365.959,-294 422.903,-294 464.145,-294"/>
<polygon fill="black" stroke="black" points="464.271,-297.5 474.271,-294 464.271,-290.5 464.271,-297.5"/>
<text text-anchor="middle" x="401" y="-299.4" font-family="Times Roman,serif" font-size="14.00">Read CONNECT</text>
</g>
<!-- loop -->
<g id="node7" class="node"><title>loop</title>
<ellipse fill="none" stroke="black" cx="740" cy="-294" rx="31.8198" ry="31.8198"/>
<text text-anchor="middle" x="740" y="-290.4" font-family="Times Roman,serif" font-size="14.00">loop</text>
</g>
<!-- start3&#45;&gt;loop -->
<g id="edge6" class="edge"><title>start3&#45;&gt;loop</title>
<path fill="none" stroke="black" d="M557.608,-294C597.53,-294 657.517,-294 697.677,-294"/>
<polygon fill="black" stroke="black" points="697.687,-297.5 707.687,-294 697.687,-290.5 697.687,-297.5"/>
<text text-anchor="middle" x="633" y="-299.4" font-family="Times Roman,serif" font-size="14.00">Write CONNACK</text>
</g>
<!-- ping -->
<g id="node9" class="node"><title>ping</title>
<ellipse fill="none" stroke="black" cx="1063" cy="-416" rx="32.0265" ry="32.5269"/>
<text text-anchor="middle" x="1063" y="-412.4" font-family="Times Roman,serif" font-size="14.00">ping</text>
</g>
<!-- loop&#45;&gt;ping -->
<g id="edge8" class="edge"><title>loop&#45;&gt;ping</title>
<path fill="none" stroke="black" d="M754.564,-322.853C763.046,-336.78 775.035,-352.491 790,-362 861.597,-407.491 963.396,-415.983 1020.29,-416.829"/>
<polygon fill="black" stroke="black" points="1020.35,-420.33 1030.38,-416.906 1020.4,-413.33 1020.35,-420.33"/>
<text text-anchor="middle" x="881" y="-418.4" font-family="Times Roman,serif" font-size="14.00">Elapsed ping interval</text>
</g>
<!-- broadcast -->
<g id="node11" class="node"><title>broadcast</title>
<ellipse fill="none" stroke="black" cx="1063" cy="-200" rx="58.1882" ry="58.6899"/>
<text text-anchor="middle" x="1063" y="-196.4" font-family="Times Roman,serif" font-size="14.00">broadcast</text>
</g>
<!-- loop&#45;&gt;broadcast -->
<g id="edge10" class="edge"><title>loop&#45;&gt;broadcast</title>
<path fill="none" stroke="black" d="M766.046,-274.934C773.498,-270.155 781.824,-265.421 790,-262 856.828,-234.035 938.382,-217.617 994.86,-208.779"/>
<polygon fill="black" stroke="black" points="995.396,-212.238 1004.75,-207.269 994.34,-205.318 995.396,-212.238"/>
<text text-anchor="middle" x="881" y="-267.4" font-family="Times Roman,serif" font-size="14.00">Receive broadcast request</text>
</g>
<!-- pong_wait -->
<g id="node13" class="node"><title>pong_wait</title>
<ellipse fill="none" stroke="black" cx="1526" cy="-406" rx="62.9325" ry="62.9325"/>
<text text-anchor="middle" x="1526" y="-402.4" font-family="Times Roman,serif" font-size="14.00">pong_wait</text>
</g>
<!-- ping&#45;&gt;pong_wait -->
<g id="edge12" class="edge"><title>ping&#45;&gt;pong_wait</title>
<path fill="none" stroke="black" d="M1095.56,-415.297C1169.19,-413.707 1350.04,-409.8 1452.36,-407.591"/>
<polygon fill="black" stroke="black" points="1452.69,-411.084 1462.61,-407.369 1452.54,-404.086 1452.69,-411.084"/>
<text text-anchor="middle" x="1289" y="-418.4" font-family="Times Roman,serif" font-size="14.00">Write PING</text>
</g>
<!-- ack_wait -->
<g id="node15" class="node"><title>ack_wait</title>
<ellipse fill="none" stroke="black" cx="1526" cy="-269" rx="55.1543" ry="55.1543"/>
<text text-anchor="middle" x="1526" y="-265.4" font-family="Times Roman,serif" font-size="14.00">ack_wait</text>
</g>
<!-- broadcast&#45;&gt;ack_wait -->
<g id="edge14" class="edge"><title>broadcast&#45;&gt;ack_wait</title>
<path fill="none" stroke="black" d="M1121.17,-208.669C1207.93,-221.599 1370.7,-245.856 1461.17,-259.339"/>
<polygon fill="black" stroke="black" points="1460.9,-262.837 1471.3,-260.849 1461.93,-255.913 1460.9,-262.837"/>
<text text-anchor="middle" x="1289" y="-257.4" font-family="Times Roman,serif" font-size="14.00">Write BROADCAST [fits one wire msg]</text>
</g>
<!-- split_broadcast -->
<g id="node17" class="node"><title>split_broadcast</title>
<ellipse fill="none" stroke="black" cx="1526" cy="-110" rx="84.1457" ry="84.1457"/>
<text text-anchor="middle" x="1526" y="-106.4" font-family="Times Roman,serif" font-size="14.00">split_broadcast</text>
</g>
<!-- broadcast&#45;&gt;split_broadcast -->
<g id="edge16" class="edge"><title>broadcast&#45;&gt;split_broadcast</title>
<path fill="none" stroke="black" d="M1120.7,-188.783C1199.06,-173.553 1340.01,-146.154 1433.29,-128.021"/>
<polygon fill="black" stroke="black" points="1434.15,-131.421 1443.29,-126.077 1432.81,-124.549 1434.15,-131.421"/>
<text text-anchor="middle" x="1289" y="-185.4" font-family="Times Roman,serif" font-size="14.00">BROADCAST does not fit one wire msg</text>
</g>
<!-- pong_wait&#45;&gt;loop -->
<g id="edge18" class="edge"><title>pong_wait&#45;&gt;loop</title>
<path fill="none" stroke="black" d="M1463.29,-398.59C1336,-383.27 1038.34,-346.004 790,-304 787.177,-303.523 784.269,-303.006 781.343,-302.468"/>
<polygon fill="black" stroke="black" points="781.898,-299.011 771.42,-300.582 780.59,-305.888 781.898,-299.011"/>
<text text-anchor="middle" x="1063" y="-359.4" font-family="Times Roman,serif" font-size="14.00">Read PONG</text>
</g>
<!-- ack_wait&#45;&gt;loop -->
<g id="edge20" class="edge"><title>ack_wait&#45;&gt;loop</title>
<path fill="none" stroke="black" d="M1470.96,-271.898C1455.75,-272.644 1439.24,-273.404 1424,-274 1181.02,-283.507 889.323,-290.597 782.144,-293.057"/>
<polygon fill="black" stroke="black" points="781.977,-289.56 772.059,-293.288 782.136,-296.558 781.977,-289.56"/>
<text text-anchor="middle" x="1063" y="-292.4" font-family="Times Roman,serif" font-size="14.00">Read ACK</text>
</g>
<!-- split_broadcast&#45;&gt;loop -->
<g id="edge26" class="edge"><title>split_broadcast&#45;&gt;loop</title>
<path fill="none" stroke="black" d="M1442.56,-99.9981C1336.06,-89.6718 1146.8,-79.5577 990,-115 894.383,-136.612 862.41,-141.921 790,-208 775.817,-220.943 764.522,-238.865 756.283,-254.999"/>
<polygon fill="black" stroke="black" points="753.014,-253.718 751.785,-264.241 759.308,-256.781 753.014,-253.718"/>
<text text-anchor="middle" x="1063" y="-120.4" font-family="Times Roman,serif" font-size="14.00">All split msgs written</text>
</g>
<!-- split_ack_wait -->
<g id="node21" class="node"><title>split_ack_wait</title>
<ellipse fill="none" stroke="black" cx="1893" cy="-110" rx="80.1095" ry="80.6102"/>
<text text-anchor="middle" x="1893" y="-106.4" font-family="Times Roman,serif" font-size="14.00">split_ack_wait</text>
</g>
<!-- split_broadcast&#45;&gt;split_ack_wait -->
<g id="edge22" class="edge"><title>split_broadcast&#45;&gt;split_ack_wait</title>
<path fill="none" stroke="black" d="M1610.2,-110C1667.61,-110 1743.59,-110 1802.33,-110"/>
<polygon fill="black" stroke="black" points="1802.35,-113.5 1812.35,-110 1802.34,-106.5 1802.35,-113.5"/>
<text text-anchor="middle" x="1711" y="-115.4" font-family="Times Roman,serif" font-size="14.00">Write split BROADCAST</text>
</g>
<!-- split_ack_wait&#45;&gt;split_broadcast -->
<g id="edge24" class="edge"><title>split_ack_wait&#45;&gt;split_broadcast</title>
<path fill="none" stroke="black" d="M1814.64,-90.9448C1807.69,-89.7544 1800.74,-88.7397 1794,-88 1720.66,-79.9496 1701.36,-80.1783 1628,-88 1624.71,-88.3505 1621.38,-88.7628 1618.01,-89.2264"/>
<polygon fill="black" stroke="black" points="1617.23,-85.8043 1607.87,-90.7602 1618.28,-92.7256 1617.23,-85.8043"/>
<text text-anchor="middle" x="1711" y="-93.4" font-family="Times Roman,serif" font-size="14.00">Read ACK</text>
</g>
</g>
</svg>
