<?xml version="1.0" encoding="UTF-8" standalone="no"?>
<!DOCTYPE svg PUBLIC "-//W3C//DTD SVG 1.1//EN"
 "http://www.w3.org/Graphics/SVG/1.1/DTD/svg11.dtd">
<!-- Generated by graphviz version 2.26.3 (20100126.1600)
 -->
<!-- Title: state_diagram_client Pages: 1 -->
<svg width="864pt" height="279pt"
 viewBox="0.00 0.00 864.00 278.89" xmlns="http://www.w3.org/2000/svg" xmlns:xlink="http://www.w3.org/1999/xlink">
<g id="graph1" class="graph" transform="scale(0.683544 0.683544) rotate(0) translate(4 404)">
<title>state_diagram_client</title>
<polygon fill="white" stroke="white" points="-4,5 -4,-404 1261,-404 1261,5 -4,5"/>
<text text-anchor="middle" x="628" y="-9.4" font-family="Times Roman,serif" font-size="14.00">State diagram for client</text>
<!-- pingTimeout -->
<g id="node1" class="node"><title>pingTimeout</title>
<ellipse fill="none" stroke="black" cx="1180" cy="-324" rx="72.1249" ry="72.1249"/>
<ellipse fill="none" stroke="black" cx="1180" cy="-324" rx="76.1249" ry="76.1249"/>
<text text-anchor="middle" x="1180" y="-320.4" font-family="Times Roman,serif" font-size="14.00">pingTimeout</text>
</g>
<!-- start1 -->
<g id="node2" class="node"><title>start1</title>
<ellipse fill="none" stroke="black" cx="42" cy="-166" rx="41.2167" ry="41.7193"/>
<text text-anchor="middle" x="42" y="-162.4" font-family="Times Roman,serif" font-size="14.00">start1</text>
</g>
<!-- start2 -->
<g id="node4" class="node"><title>start2</title>
<ellipse fill="none" stroke="black" cx="292" cy="-166" rx="41.2167" ry="41.7193"/>
<text text-anchor="middle" x="292" y="-162.4" font-family="Times Roman,serif" font-size="14.00">start2</text>
</g>
<!-- start1&#45;&gt;start2 -->
<g id="edge2" class="edge"><title>start1&#45;&gt;start2</title>
<path fill="none" stroke="black" d="M83.5631,-166C126.547,-166 193.757,-166 240.181,-166"/>
<polygon fill="black" stroke="black" points="240.338,-169.5 250.338,-166 240.338,-162.5 240.338,-169.5"/>
<text text-anchor="middle" x="167" y="-171.4" font-family="Times Roman,serif" font-size="14.00">Write wire version</text>
</g>
<!-- start3 -->
<g id="node6" class="node"><title>start3</title>
<ellipse fill="none" stroke="black" cx="526" cy="-166" rx="41.2167" ry="41.7193"/>
<text text-anchor="middle" x="526" y="-162.4" font-family="Times Roman,serif" font-size="14.00">start3</text>
</g>
<!-- start2&#45;&gt;start3 -->
<g id="edge4" class="edge"><title>start2&#45;&gt;start3</title>
<path fill="none" stroke="black" d="M333.565,-166C372.875,-166 431.992,-166 474.321,-166"/>
<polygon fill="black" stroke="black" points="474.429,-169.5 484.429,-166 474.429,-162.5 474.429,-169.5"/>
<text text-anchor="middle" x="409" y="-171.4" font-family="Times Roman,serif" font-size="14.00">Write CONNECT</text>
</g>
<!-- loop -->
<g id="node8" class="node"><title>loop</title>
<ellipse fill="none" stroke="black" cx="746" cy="-166" rx="31.8198" ry="31.8198"/>
<text text-anchor="middle" x="746" y="-162.4" font-family="Times Roman,serif" font-size="14.00">loop</text>
</g>
<!-- start3&#45;&gt;loop -->
<g id="edge6" class="edge"><title>start3&#45;&gt;loop</title>
<path fill="none" stroke="black" d="M567.639,-166C606.633,-166 664.616,-166 703.793,-166"/>
<polygon fill="black" stroke="black" points="703.818,-169.5 713.818,-166 703.818,-162.5 703.818,-169.5"/>
<text text-anchor="middle" x="641" y="-171.4" font-family="Times Roman,serif" font-size="14.00">Read CONNACK</text>
</g>
<!-- loop&#45;&gt;pingTimeout -->
<g id="edge16" class="edge"><title>loop&#45;&gt;pingTimeout</title>
<path fill="none" stroke="black" d="M763.666,-192.937C772.211,-204.042 783.361,-216.128 796,-224 888.06,-281.339 1012.12,-305.973 1094,-316.443"/>
<polygon fill="black" stroke="black" points="1093.67,-319.928 1104.02,-317.68 1094.53,-312.981 1093.67,-319.928"/>
<text text-anchor="middle" x="941" y="-319.4" font-family="Times Roman,serif" font-size="14.00">Elapsed ping interval + exchange interval</text>
</g>
<!-- pong -->
<g id="node10" class="node"><title>pong</title>
<ellipse fill="none" stroke="black" cx="1180" cy="-195" rx="34.8574" ry="35.3553"/>
<text text-anchor="middle" x="1180" y="-191.4" font-family="Times Roman,serif" font-size="14.00">pong</text>
</g>
<!-- loop&#45;&gt;pong -->
<g id="edge8" class="edge"><title>loop&#45;&gt;pong</title>
<path fill="none" stroke="black" d="M775.392,-179.044C782.046,-181.465 789.167,-183.653 796,-185 916.362,-208.722 1062.02,-203.515 1134.48,-198.706"/>
<polygon fill="black" stroke="black" points="1134.89,-202.186 1144.62,-198.003 1134.4,-195.203 1134.89,-202.186"/>
<text text-anchor="middle" x="941" y="-207.4" font-family="Times Roman,serif" font-size="14.00">Read PING</text>
</g>
<!-- broadcast -->
<g id="node12" class="node"><title>broadcast</title>
<ellipse fill="none" stroke="black" cx="1180" cy="-84" rx="58.1882" ry="58.6899"/>
<text text-anchor="middle" x="1180" y="-80.4" font-family="Times Roman,serif" font-size="14.00">broadcast</text>
</g>
<!-- loop&#45;&gt;broadcast -->
<g id="edge10" class="edge"><title>loop&#45;&gt;broadcast</title>
<path fill="none" stroke="black" d="M770.52,-145.1C778.217,-139.607 787.053,-134.301 796,-131 917.482,-86.1746 957.924,-122.075 1086,-103 1094.61,-101.717 1103.63,-100.165 1112.53,-98.5074"/>
<polygon fill="black" stroke="black" points="1113.34,-101.917 1122.5,-96.5998 1112.02,-95.0419 1113.34,-101.917"/>
<text text-anchor="middle" x="941" y="-136.4" font-family="Times Roman,serif" font-size="14.00">Read BROADCAST</text>
</g>
<!-- pong&#45;&gt;loop -->
<g id="edge12" class="edge"><title>pong&#45;&gt;loop</title>
<path fill="none" stroke="black" d="M1147.19,-180.867C1129.44,-173.986 1106.92,-166.463 1086,-163 980.081,-145.465 853.051,-154.36 788.368,-160.981"/>
<polygon fill="black" stroke="black" points="787.736,-157.528 778.16,-162.06 788.472,-164.489 787.736,-157.528"/>
<text text-anchor="middle" x="941" y="-168.4" font-family="Times Roman,serif" font-size="14.00">Write PONG</text>
</g>
<!-- broadcast&#45;&gt;loop -->
<g id="edge14" class="edge"><title>broadcast&#45;&gt;loop</title>
<path fill="none" stroke="black" d="M1123.8,-67.0114C1044.83,-46.6166 899.156,-22.0001 796,-81 778.946,-90.7538 767.135,-108.842 759.293,-125.833"/>
<polygon fill="black" stroke="black" points="756.044,-124.528 755.336,-135.099 762.482,-127.277 756.044,-124.528"/>
<text text-anchor="middle" x="941" y="-86.4" font-family="Times Roman,serif" font-size="14.00">Write ACK</text>
</g>
</g>
</svg>
